<svg xmlns="http://www.w3.org/2000/svg" viewBox="0 0 112 112" role="img" aria-labelledby="title"><title id="title">Jelentkezés önéletrajzzal</title><rect x="4" y="4" width="104" height="104" rx="16" fill="#F7F4EC"/><rect x="40" y="19" width="28" height="38" rx="3" fill="#E8DED0" stroke="#4F3A24" stroke-width="2.5"/><circle cx="49" cy="29" r="3.5" fill="#7EA3C9" stroke="#5A7EA4" stroke-width="2.5"/><path d="M 43 41 C 44 34 47 32 49 32 C 51 32 54 34 55 41" fill="none" stroke="#7EA3C9" stroke-width="2" stroke-linecap="round" stroke-linejoin="round"/><line x1="58" y1="29" x2="65" y2="29" stroke="#8A6A4C" stroke-width="2" stroke-linecap="round"/><line x1="58" y1="35" x2="65" y2="35" stroke="#8A6A4C" stroke-width="2" stroke-linecap="round"/><circle cx="79" cy="53" r="8.2" fill="#F1C7A1" stroke="#4F3A24" stroke-width="2.5"/><path d="M 69.98 50.54 C 67.52 58.74 71.62 67.76 77.36 69.4 M 88.02 50.54 C 90.48 58.74 86.38 67.76 80.64 69.4" fill="none" stroke="#7B5631" stroke-width="4" stroke-linecap="round" stroke-linejoin="round"/><path d="M 69.98 50.54 C 73.26 40.7 84.74 40.7 88.02 50.54" fill="#7B5631" stroke="#7B5631" stroke-width="1" stroke-linecap="round" stroke-linejoin="round"/><circle cx="76.54" cy="52.18" r="0.656" fill="#4F3A24" stroke="#4F3A24" stroke-width="1"/><circle cx="81.46" cy="52.18" r="0.656" fill="#4F3A24" stroke="#4F3A24" stroke-width="1"/><path d="M 76.54 56.28 C 79 57.92 81.46 56.28" fill="none" stroke="#4F3A24" stroke-width="1.5" stroke-linecap="round" stroke-linejoin="round"/><path d="M 65.88 79.24 C 67.52 67.76 73.26 63.66 79 63.66 C 84.74 63.66 90.48 67.76 92.12 79.24 Z" fill="#87A95E" stroke="#4F3A24" stroke-width="2.5" stroke-linecap="round" stroke-linejoin="round"/><path d="M 28 70 H 43" fill="none" stroke="#7A5B33" stroke-width="3" stroke-linecap="round" stroke-linejoin="round"/></svg>