<svg xmlns="http://www.w3.org/2000/svg" viewBox="0 0 112 112" role="img" aria-labelledby="title"><title id="title">Munkába járás támogatása</title><rect x="4" y="4" width="104" height="104" rx="16" fill="#F6F2E9"/><circle cx="54" cy="32" r="9.0" fill="#F1C7A1" stroke="#4F3A24" stroke-width="2.5"/><path d="M 45.0 29.3 C 47.7 20.299999999999997 61.2 20.299999999999997 63.0 30.2" fill="#7B5631" stroke="#7B5631" stroke-width="1" stroke-linecap="round" stroke-linejoin="round"/><circle cx="51.3" cy="31.1" r="0.7200000000000001" fill="#4F3A24" stroke="#4F3A24" stroke-width="1"/><circle cx="56.7" cy="31.1" r="0.7200000000000001" fill="#4F3A24" stroke="#4F3A24" stroke-width="1"/><path d="M 51.3 35.6 C 54 37.4 56.7 35.6" fill="none" stroke="#4F3A24" stroke-width="1.5" stroke-linecap="round" stroke-linejoin="round"/><path d="M 39.6 60.8 C 41.4 48.2 47.7 43.7 54 43.7 C 60.3 43.7 66.6 48.2 68.4 60.8 Z" fill="#87A95E" stroke="#4F3A24" stroke-width="2.5" stroke-linecap="round" stroke-linejoin="round"/><path d="M 62 52 L 77 52" fill="none" stroke="#7A5B33" stroke-width="3" stroke-linecap="round" stroke-linejoin="round"/><rect x="85" y="20" width="12" height="20" rx="2" fill="#E2C164" stroke="#C4953E" stroke-width="2.5"/><path d="M 87 27 H 95" fill="none" stroke="white" stroke-width="2" stroke-linecap="round" stroke-linejoin="round"/><path d="M 87 31 H 95" fill="none" stroke="white" stroke-width="2" stroke-linecap="round" stroke-linejoin="round"/><path d="M 87 35 H 95" fill="none" stroke="white" stroke-width="2" stroke-linecap="round" stroke-linejoin="round"/><rect x="88" y="50" width="10" height="18" rx="2" fill="#7EA3C9" stroke="#5A7EA4" stroke-width="2.5"/></svg>